<svg id="Calque_1" data-name="Calque 1" xmlns="http://www.w3.org/2000/svg" viewBox="0 0 294.8 124.72"><defs><style>.cls-1{fill:#1c509d;}.cls-2{fill:#fff;}.cls-3{fill:#e73c30;}</style></defs><path class="cls-1" d="M13,97.25H19.5l10.85,25H23.18l-1.79-4.39H11.08L9.3,122.24H2.09Zm6.32,15.35-3-7.67h-.11l-3,7.67Z"/><path class="cls-1" d="M33.89,114.24h6.75c.6,1.86,2.35,3.29,5.17,3.29,2.14,0,3.57-.86,3.53-2.14,0-4.68-14.31-.5-14.41-10.82,0-4.74,4.1-8,10.35-8,6,0,10.67,3.11,11.2,8.07H49.63a3.77,3.77,0,0,0-4-2.82c-1.92,0-3.28.86-3.28,2.28.07,4.82,14.28.75,14.35,10.75,0,4.78-4.25,8-10.75,8C39.17,122.84,34.6,119.6,33.89,114.24Z"/><path class="cls-1" d="M62.13,114.24h6.74c.61,1.86,2.36,3.29,5.18,3.29,2.14,0,3.57-.86,3.53-2.14,0-4.68-14.31-.5-14.42-10.82,0-4.74,4.11-8,10.35-8,6,0,10.67,3.11,11.21,8.07H77.87a3.78,3.78,0,0,0-4-2.82c-1.93,0-3.28.86-3.28,2.28.07,4.82,14.27.75,14.34,10.75,0,4.78-4.24,8-10.74,8C67.41,122.84,62.84,119.6,62.13,114.24Z"/><path class="cls-1" d="M90.79,111.07V97.25h6.82v14c0,3.46,2.07,5.67,5.31,5.67s5.36-2.21,5.36-5.67v-14h6.81v13.82c0,7.42-4.49,11.81-12.17,11.81S90.79,118.49,90.79,111.07Z"/><path class="cls-1" d="M137.58,122.24l-5.39-8h-4v8h-6.74v-25h11.38c6.57,0,10.67,3.25,10.67,8.5a7.59,7.59,0,0,1-4.53,7.17l6.57,9.32Zm-9.35-13.49h3.93c2.89,0,4.6-1.11,4.6-3s-1.64-3-4.42-3h-4.11Z"/><path class="cls-1" d="M159.82,97.25h6.5l10.85,25H170l-1.79-4.39H157.9l-1.79,4.39H148.9Zm6.32,15.35-3-7.67H163l-3,7.67Z"/><path class="cls-1" d="M206.05,97.25v25h-5.5L189,108.71v13.53h-6.75v-25h5.43l11.63,13.82V97.25Z"/><path class="cls-1" d="M232,112.1h7c-1,6.78-5.92,10.74-13.2,10.74-8.17,0-13.6-5.24-13.6-13.09s5.43-13.14,13.6-13.14c7.28,0,12.2,4,13.2,10.75h-7a6,6,0,0,0-6.17-4.82c-4.11,0-6.82,2.89-6.82,7.21s2.71,7.17,6.82,7.17A6,6,0,0,0,232,112.1Z"/><path class="cls-1" d="M251.88,102.64v4.54h11v5.28h-11v4.39h12.89v5.39H245.14v-25h19.63v5.39Z"/><path class="cls-1" d="M269.91,114.24h6.75c.6,1.86,2.35,3.29,5.17,3.29,2.14,0,3.57-.86,3.53-2.14,0-4.68-14.31-.5-14.41-10.82,0-4.74,4.1-8,10.35-8,6,0,10.67,3.11,11.2,8.07h-6.85a3.77,3.77,0,0,0-4-2.82c-1.92,0-3.28.86-3.28,2.28.07,4.82,14.27.75,14.35,10.75,0,4.78-4.25,8-10.75,8C275.19,122.84,270.62,119.6,269.91,114.24Z"/><path class="cls-1" d="M9.09,1.84h252a2,2,0,0,1,2,2v78a2,2,0,0,1-2,2H9.09a7,7,0,0,1-7-7v-68A7,7,0,0,1,9.09,1.84Z"/><path class="cls-2" d="M29.36,18H47.87L65.2,67.86H49.4l-2.5-8.7H30.26l-2.58,8.7H12Zm15.1,30.9L38.68,29.43h-.14L32.7,48.92Z"/><path class="cls-2" d="M101.64,34.06q3,3,3,8.39V67.86H91.16V47A5.07,5.07,0,0,0,90,43.46a4,4,0,0,0-3.16-1.29,5.23,5.23,0,0,0-4,1.67,6.36,6.36,0,0,0-1.53,4.46V67.86H67.85V31.94h11.2l2.16,7h.07a14.46,14.46,0,0,1,5-5.81A12.78,12.78,0,0,1,93.46,31C96.94,31,99.67,32,101.64,34.06Z"/><path class="cls-2" d="M256.09,6.66H120.46a5,5,0,0,0-5,5V74a5,5,0,0,0,5,5H256.1a2,2,0,0,0,2-2V8.66A2,2,0,0,0,256.09,6.66Zm-88.37,55a18.21,18.21,0,0,1-8.24,5.92,34,34,0,0,1-12.11,2q-9.88,0-16.15-4.22a15.88,15.88,0,0,1-7.1-12.21l13.57-2.58a8.74,8.74,0,0,0,3.34,6,11.05,11.05,0,0,0,7,2.23,10.84,10.84,0,0,0,5.88-1.4,4.13,4.13,0,0,0,2.2-3.61,3.28,3.28,0,0,0-1.71-2.89,16.47,16.47,0,0,0-5.53-1.78L142.56,48q-9-1.53-13.15-5.15t-4.11-10a14.44,14.44,0,0,1,2.75-8.76,17.35,17.35,0,0,1,7.62-5.78,28.45,28.45,0,0,1,11-2,27.28,27.28,0,0,1,10,1.77,18.5,18.5,0,0,1,7.38,5.08,14.25,14.25,0,0,1,3.41,7.63l-13.36,2.92a7.15,7.15,0,0,0-2.47-4.84,8,8,0,0,0-5.26-1.77,7.71,7.71,0,0,0-4.63,1.25,3.94,3.94,0,0,0-1.7,3.34,3.27,3.27,0,0,0,1.56,2.86,13.56,13.56,0,0,0,5,1.6l6.47,1q9.12,1.32,13.33,5t4.21,10.23A15,15,0,0,1,167.72,61.66Zm37.83,5.6a28.31,28.31,0,0,1-22-.48,18.68,18.68,0,0,1-7.87-6.93,19,19,0,0,1-2.78-10.23,19.33,19.33,0,0,1,2.51-9.95,17.4,17.4,0,0,1,7-6.72,23.77,23.77,0,0,1,20.46-.17A16.08,16.08,0,0,1,209.59,39,18.08,18.08,0,0,1,212,48.37a17.87,17.87,0,0,1-.7,5.15H186.69a6.54,6.54,0,0,0,2.89,4.63,10.77,10.77,0,0,0,6.23,1.7,15,15,0,0,0,5.57-1.08,11.09,11.09,0,0,0,4.31-2.89L212.58,62A15.66,15.66,0,0,1,205.55,67.26Zm37.17.63a20.78,20.78,0,0,1-7.31,1.36q-7.09,0-11.2-3.87T220.1,54.91v-13H214V31.94h6.12V22.47l13.43-2.92-.07,12.39H247v10H233.46l.07,10.72c0,2.76,1.11,4.68,3.32,5.74a3.1,3.1,0,0,0,1.16.29,8.67,8.67,0,0,0,4.54-.81,12.05,12.05,0,0,0,3.3-2.64l2.86,9A17.06,17.06,0,0,1,242.72,67.89Z"/><path class="cls-2" d="M196.78,41.48a4.93,4.93,0,0,0-4-1.81,5.49,5.49,0,0,0-4.22,1.87,8.66,8.66,0,0,0-2,5h11.9A8,8,0,0,0,196.78,41.48Z"/><path class="cls-3" d="M275.08,1.84h15.26a2,2,0,0,1,2,2v78a2,2,0,0,1-2,2H275.08a7,7,0,0,1-7-7v-68a7,7,0,0,1,7-7Z" transform="translate(560.42 85.69) rotate(180)"/><path class="cls-2" d="M277,66.85v4h9.83V75H277v4h-3.41V66.85Z"/><path class="cls-2" d="M273.59,60.86v-4l13.24-5.65v4.42l-1.95.76v5l1.95.74v4.44Zm8.17-3.33-3.46,1.28v.06l3.46,1.29Z"/><path class="cls-2" d="M273.59,48.74V44.58h4.86V39.87h-4.86V35.71h13.24v4.16h-4.95v4.71h4.95v4.16Z"/><path class="cls-2" d="M273.59,32.49V28.33h13.24v4.16Z"/><path class="cls-2" d="M277,13.48v4h9.83v4.16H277v4h-3.41V13.48Z"/><path class="cls-2" d="M273.59,10.82V6.66h13.24v4.16Z"/></svg>