<?xml version="1.0" encoding="UTF-8"?>
<svg xmlns="http://www.w3.org/2000/svg" xmlns:xlink="http://www.w3.org/1999/xlink" width="276.981" height="113.202" viewBox="0 0 276.981 113.202">
  <defs>
    <clipPath id="clip-path">
      <rect id="Rectangle_2" data-name="Rectangle 2" width="276.981" height="113.202" fill="none"></rect>
    </clipPath>
  </defs>
  <g id="Groupe_3" data-name="Groupe 3" transform="translate(0 0)">
    <path id="Tracé_1" data-name="Tracé 1" d="M13.474,73.3h.188L16.51,80.6H10.627ZM10.437,65.99,0,89.807H6.927l1.707-4.175h9.773l1.709,4.175h6.833L16.6,65.99Z" transform="translate(0 22.731)" fill="#00418c"></path>
    <g id="Groupe_2" data-name="Groupe 2" transform="translate(0 0)">
      <g id="Groupe_1" data-name="Groupe 1" clip-path="url(#clip-path)">
        <path id="Tracé_2" data-name="Tracé 2" d="M22.585,82.386h6.452c.57,1.8,2.278,3.131,4.934,3.131,2.088,0,3.416-.854,3.322-2.088,0-4.46-13.665-.475-13.759-10.343,0-4.554,3.89-7.591,9.868-7.591,5.788,0,10.153,2.942,10.722,7.686H37.577a3.545,3.545,0,0,0-3.8-2.657c-1.8,0-3.131.854-3.131,2.182.1,4.555,13.57.76,13.664,10.247,0,4.555-4.08,7.592-10.247,7.592-6.452,0-10.818-3.131-11.482-8.161" transform="translate(7.78 22.561)" fill="#00418c"></path>
        <path id="Tracé_3" data-name="Tracé 3" d="M42.558,82.386H49.01c.57,1.8,2.278,3.131,4.934,3.131,2.088,0,3.416-.854,3.321-2.088,0-4.46-13.664-.475-13.758-10.343,0-4.554,3.89-7.591,9.868-7.591,5.788,0,10.153,2.942,10.722,7.686H57.55a3.546,3.546,0,0,0-3.8-2.657c-1.8,0-3.131.854-3.131,2.182.1,4.649,13.664.76,13.664,10.247,0,4.555-4.08,7.592-10.247,7.592-6.452,0-10.722-3.131-11.482-8.161" transform="translate(14.66 22.561)" fill="#00418c"></path>
        <path id="Tracé_4" data-name="Tracé 4" d="M62.884,79.179V65.99h6.452V79.369c0,3.321,1.992,5.409,5.03,5.409,3.131,0,5.124-2.088,5.124-5.409V65.99h6.452V79.179c0,7.116-4.27,11.292-11.576,11.292-7.212-.1-11.482-4.27-11.482-11.292" transform="translate(21.661 22.731)" fill="#00418c"></path>
        <path id="Tracé_5" data-name="Tracé 5" d="M99.994,89.807,94.87,82.215h-3.8v7.592H84.623V65.99H95.441c6.262,0,10.152,3.131,10.152,8.065a7.133,7.133,0,0,1-4.364,6.831l6.263,8.921ZM91.075,76.9h3.7c2.751,0,4.364-1.043,4.364-2.846s-1.518-2.848-4.175-2.848H91.075Z" transform="translate(29.15 22.731)" fill="#00418c"></path>
        <path id="Tracé_6" data-name="Tracé 6" d="M114.54,65.99h6.167L131.05,89.807h-6.831l-1.709-4.175h-9.868l-1.708,4.175H104.1ZM120.518,80.6,117.672,73.3h-.1L114.73,80.6Z" transform="translate(35.859 22.731)" fill="#00418c"></path>
        <path id="Tracé_7" data-name="Tracé 7" d="M150.424,65.99V89.807H145.2L134.2,76.9V89.807h-6.452V65.99h5.124l11.1,13.189V65.99Z" transform="translate(44.004 22.731)" fill="#00418c"></path>
        <path id="Tracé_8" data-name="Tracé 8" d="M167.9,80.3h6.642c-.948,6.452-5.692,10.247-12.619,10.247-7.782,0-13-5.028-13-12.525s5.124-12.525,13-12.525c6.927,0,11.671,3.8,12.619,10.247H167.9a5.677,5.677,0,0,0-5.883-4.554c-3.889,0-6.452,2.751-6.452,6.831s2.563,6.833,6.452,6.833A5.659,5.659,0,0,0,167.9,80.3" transform="translate(51.297 22.561)" fill="#00418c"></path>
        <path id="Tracé_9" data-name="Tracé 9" d="M178.732,71.114v4.365H189.17v5.028H178.732v4.176h12.24v5.124H172.28V65.99h18.692v5.124Z" transform="translate(59.344 22.731)" fill="#00418c"></path>
        <path id="Tracé_10" data-name="Tracé 10" d="M189.853,82.386h6.452c.57,1.8,2.278,3.131,4.934,3.131,2.088,0,3.416-.854,3.322-2.088,0-4.46-13.665-.475-13.759-10.343,0-4.554,3.89-7.591,9.868-7.591,5.788,0,10.153,2.942,10.722,7.686h-6.548a3.546,3.546,0,0,0-3.8-2.657c-1.8,0-3.131.854-3.131,2.182.1,4.555,13.57.76,13.664,10.247,0,4.555-4.08,7.592-10.248,7.592-6.452,0-10.818-3.131-11.482-8.161" transform="translate(65.397 22.561)" fill="#00418c"></path>
        <path id="Tracé_11" data-name="Tracé 11" d="M240.922,76.361H6.548A6.561,6.561,0,0,1,0,69.814V6.619A6.561,6.561,0,0,1,6.548.071H240.922a1.9,1.9,0,0,1,1.9,1.9v72.59a1.887,1.887,0,0,1-1.9,1.8" transform="translate(0 0.025)" fill="#00418c"></path>
        <path id="Tracé_12" data-name="Tracé 12" d="M23.048,11.292H40.222l16.131,46.4H41.646l-2.373-8.065H23.9l-2.373,8.065H6.916ZM37.091,40.043,31.682,21.92h-.1L26.179,40.043Z" transform="translate(2.382 3.89)" fill="#fff"></path>
        <path id="Tracé_13" data-name="Tracé 13" d="M76.931,23.1a10.807,10.807,0,0,1,2.752,7.78V54.51H67.252V35.059a4.7,4.7,0,0,0-1.043-3.227A4,4,0,0,0,63.267,30.6a4.934,4.934,0,0,0-3.8,1.518,5.859,5.859,0,0,0-1.424,4.175V54.51H45.523V21.11H55.96l1.994,6.452h.094A13.108,13.108,0,0,1,62.7,22.153a12.1,12.1,0,0,1,6.643-1.9A10.015,10.015,0,0,1,76.931,23.1" transform="translate(15.681 6.978)" fill="#fff"></path>
        <path id="Tracé_14" data-name="Tracé 14" d="M209.239,3.388H83.131a4.657,4.657,0,0,0-4.649,4.649V66.014a4.657,4.657,0,0,0,4.649,4.649h126.2a1.9,1.9,0,0,0,1.9-1.9V5.191a2.047,2.047,0,0,0-1.992-1.8M127.065,54.533a16.768,16.768,0,0,1-7.686,5.5,31.983,31.983,0,0,1-11.292,1.9c-6.167,0-11.1-1.328-14.992-3.891a15.011,15.011,0,0,1-6.643-11.386l12.62-2.373a8,8,0,0,0,3.131,5.6,10.209,10.209,0,0,0,6.548,2.088,10.5,10.5,0,0,0,5.5-1.328,3.865,3.865,0,0,0,1.993-3.321,3.04,3.04,0,0,0-1.613-2.657,14.081,14.081,0,0,0-5.124-1.613l-5.883-1.043c-5.6-.949-9.679-2.563-12.241-4.745-2.561-2.278-3.8-5.315-3.8-9.3A13.483,13.483,0,0,1,90.153,19.8,16.578,16.578,0,0,1,97.27,14.4a27.008,27.008,0,0,1,10.249-1.9,26.16,26.16,0,0,1,9.3,1.613,16.387,16.387,0,0,1,6.833,4.745,12.748,12.748,0,0,1,3.131,7.116L114.35,28.723a6.213,6.213,0,0,0-2.277-4.46,7.2,7.2,0,0,0-4.934-1.613,7.124,7.124,0,0,0-4.27,1.139,3.7,3.7,0,0,0-1.612,3.131,3.052,3.052,0,0,0,1.422,2.657,12.6,12.6,0,0,0,4.649,1.518l5.979.949c5.694.854,9.773,2.372,12.431,4.649s3.89,5.5,3.89,9.489a12.507,12.507,0,0,1-2.561,8.35m35.2,5.219a24.78,24.78,0,0,1-9.679,1.8,24.508,24.508,0,0,1-10.818-2.278,17.313,17.313,0,0,1-7.306-6.453,17.762,17.762,0,0,1-2.563-9.488,17.863,17.863,0,0,1,2.372-9.3,16.048,16.048,0,0,1,6.547-6.263A19.729,19.729,0,0,1,150.5,25.5a20.12,20.12,0,0,1,9.394,2.088,16.017,16.017,0,0,1,6.262,5.788,17.159,17.159,0,0,1,2.183,8.635,14.69,14.69,0,0,1-.664,4.743H144.81a6.089,6.089,0,0,0,2.657,4.27,10.14,10.14,0,0,0,5.788,1.613,14.224,14.224,0,0,0,5.219-1.043,9.5,9.5,0,0,0,3.985-2.657l6.452,5.692a14.126,14.126,0,0,1-6.642,5.125m34.539.569a19.279,19.279,0,0,1-6.833,1.234c-4.364,0-7.875-1.234-10.437-3.606s-3.8-5.6-3.8-9.774V36.218h-5.694v-9.3h5.694V18.1l12.525-2.752-.1,11.482H200.7v9.3H188.173l.1,9.962c0,2.563,1.043,4.365,3.037,5.315a2.162,2.162,0,0,0,1.043.284,8.823,8.823,0,0,0,4.27-.758,9.93,9.93,0,0,0,3.036-2.467l2.658,8.445a12.969,12.969,0,0,1-5.5,3.416" transform="translate(27.034 1.167)" fill="#fff"></path>
        <path id="Tracé_15" data-name="Tracé 15" d="M137.163,27.962a4.59,4.59,0,0,0-3.7-1.707,5.107,5.107,0,0,0-3.89,1.707,7.686,7.686,0,0,0-1.9,4.555h11.1a7.905,7.905,0,0,0-1.613-4.555" transform="translate(43.979 9.044)" fill="#fff"></path>
        <path id="Tracé_16" data-name="Tracé 16" d="M185.893,0h20.78a6.561,6.561,0,0,1,6.548,6.548V69.838a6.561,6.561,0,0,1-6.548,6.548h-20.78a1.9,1.9,0,0,1-1.9-1.9V1.9a2.04,2.04,0,0,1,1.9-1.9" transform="translate(63.38 0)" fill="#de2223"></path>
        <path id="Tracé_17" data-name="Tracé 17" d="M188.724,48.416h7.4v1.613l-3.985,3.416h3.985v1.992h-7.4V53.825l4.08-3.416h-4.08Z" transform="translate(65.009 16.678)" fill="#fff"></path>
        <path id="Tracé_18" data-name="Tracé 18" d="M192.4,48.954a3.789,3.789,0,0,1-3.891-4.08,3.9,3.9,0,1,1,7.782,0,3.74,3.74,0,0,1-3.891,4.08m0-6.073a2.07,2.07,0,0,0-2.182,2.088,2.018,2.018,0,0,0,2.182,2.087,2.07,2.07,0,0,0,2.182-2.087,1.971,1.971,0,0,0-2.182-2.088" transform="translate(64.936 14.052)" fill="#fff"></path>
        <path id="Tracé_19" data-name="Tracé 19" d="M192.8,41.23h-4.08V39.237H192.9a1.524,1.524,0,0,0,1.707-1.613A1.571,1.571,0,0,0,192.9,36.01h-4.176V34.018h4.08a3.269,3.269,0,0,1,3.51,3.606c-.094,2.278-1.328,3.606-3.51,3.606" transform="translate(65.009 11.718)" fill="#fff"></path>
        <path id="Tracé_20" data-name="Tracé 20" d="M188.724,35.007V32.824l4.839-2.088-4.839-2.088V26.466l7.4,3.227V31.78Z" transform="translate(65.009 9.117)" fill="#fff"></path>
        <path id="Tracé_21" data-name="Tracé 21" d="M190.267,24.686h1.328V21.46h1.518v3.227h1.328v-3.8h1.613v5.788h-7.4V20.891h1.613Z" transform="translate(64.984 7.196)" fill="#fff"></path>
        <path id="Tracé_22" data-name="Tracé 22" d="M194.442,15.174h1.613v5.694h-7.4V18.876h5.692v-3.7Z" transform="translate(64.984 5.227)" fill="#fff"></path>
        <path id="Tracé_23" data-name="Tracé 23" d="M194.442,9.528h1.613v5.694h-7.4V13.229h5.692v-3.7Z" transform="translate(64.984 3.282)" fill="#fff"></path>
        <path id="Tracé_24" data-name="Tracé 24" d="M190.267,7.607h1.328V4.38h1.518V7.607h1.328v-3.8h1.613V9.6h-7.4V3.811h1.613Z" transform="translate(64.984 1.313)" fill="#fff"></path>
        <path id="Tracé_25" data-name="Tracé 25" d="M200.714,49.939V47.851a3.544,3.544,0,0,1,3.131,3.891,3.892,3.892,0,1,1-7.782,0,3.544,3.544,0,0,1,3.131-3.891v2.088a1.754,1.754,0,0,0-1.423,1.8,2.089,2.089,0,0,0,4.173,0c.191-.949-.378-1.518-1.232-1.8" transform="translate(67.537 16.483)" fill="#fff"></path>
        <path id="Tracé_26" data-name="Tracé 26" d="M196.276,46.483v-1.9l7.4-3.227v2.088l-1.328.57v3.036l1.328.569v2.088Zm4.46-1.9-2.277.854,2.277.854Z" transform="translate(67.61 14.246)" fill="#fff"></path>
        <path id="Tracé_27" data-name="Tracé 27" d="M201.993,36.347h1.613v5.694h-7.4V40.049H201.9v-3.7Z" transform="translate(67.586 12.52)" fill="#fff"></path>
        <path id="Tracé_28" data-name="Tracé 28" d="M196.15,34.895l-1.709-.948V31.955l1.8,1.137Zm2.372.1h1.328V31.764h1.518V34.99H202.7v-3.8h1.613v5.788h-7.4V31.195h1.613Z" transform="translate(66.978 10.746)" fill="#fff"></path>
        <path id="Tracé_29" data-name="Tracé 29" d="M199.976,24.914c2.277,0,3.7,1.613,3.7,4.175v3.037h-7.4V29.089c0-2.657,1.424-4.175,3.7-4.175m0,1.993a1.949,1.949,0,0,0-1.993,2.182v.949h3.985v-.949a2,2,0,0,0-1.992-2.182" transform="translate(67.61 8.582)" fill="#fff"></path>
        <path id="Tracé_30" data-name="Tracé 30" d="M200.025,26.087a3.789,3.789,0,0,1-3.891-4.08,3.9,3.9,0,1,1,7.782,0c-.1,2.467-1.613,4.08-3.891,4.08m0-6.073a2.07,2.07,0,0,0-2.182,2.088,2.018,2.018,0,0,0,2.182,2.087,2.07,2.07,0,0,0,2.182-2.087,2.125,2.125,0,0,0-2.182-2.088" transform="translate(67.561 6.175)" fill="#fff"></path>
        <path id="Tracé_31" data-name="Tracé 31" d="M196.276,11.786h7.4V13.4l-3.985,3.416h3.985v1.992h-7.4V17.2l4.08-3.416h-4.08Z" transform="translate(67.61 4.06)" fill="#fff"></path>
        <rect id="Rectangle_1" data-name="Rectangle 1" width="7.401" height="1.992" transform="translate(263.886 12.335)" fill="#fff"></rect>
        <path id="Tracé_32" data-name="Tracé 32" d="M197.889,7.561h1.328V4.24h1.518V7.465h1.328V3.67h1.613V9.459h-7.4V3.765h1.613Z" transform="translate(67.61 1.264)" fill="#fff"></path>
      </g>
    </g>
  </g>
</svg>
